<?xml version="1.0" encoding="utf-8"?>
<!-- Generator: Adobe Illustrator 23.0.3, SVG Export Plug-In . SVG Version: 6.00 Build 0)  -->
<svg version="1.1" xmlns="http://www.w3.org/2000/svg" xmlns:xlink="http://www.w3.org/1999/xlink" x="0px" y="0px"
	 viewBox="0 0 1600 1200" style="enable-background:new 0 0 1600 1200;" xml:space="preserve">
<style type="text/css">
	.st0{fill:#E8E8E8;}
	.st1{fill:#EC615B;}
	.st2{fill:#5222D0;}
	.st3{fill:#FFFFFF;stroke:#161616;stroke-width:3;stroke-miterlimit:10;}
	.st4{fill:#161616;}
	.st5{fill:#161616;stroke:#161616;stroke-width:3;stroke-miterlimit:10;}
	.st6{fill:#FFFFFF;}
	.st7{opacity:0.15;fill:#7A7A7A;}
	.st8{opacity:0.17;fill:#7A7A7A;}
	.st9{opacity:0.14;fill:#7A7A7A;}
	.st10{opacity:0.12;fill:#7A7A7A;}
</style>
<g id="background">
	<g>
		<g>
			<path class="st0" d="M706.2,958.8c-7.7-12.3-13.4-25.6-16.9-39.6c-1.7-6.9-3.4-14.2-3.5-21.3c0-3.5,0.4-8,3.5-10.3
				c2.7-1.9,8.6-1.8,8.9,2.6c1,0,2,0,3,0c-0.3-2.6-2.1-27.8,1.8-26.4c1.2,0.4,2-0.8,1.8-1.8c-2.9-19.2-3.2-38.8-0.8-58.1
				c1.2-9.6,3.1-19.1,5.6-28.4c1.7-6.4,5.1-24.2,14.9-21.5c8.3,2.2,7.8,17.4,8.5,23.8c1.1,10.2,2.1,20.4,3,30.5
				c1.8,20.1,3.2,40.1,4.3,60.2c1.3,23.1,2.1,46.2,2.5,69.3c0,1.9,3,1.9,3,0c-0.9-47.5-3.5-95-8.1-142.3c-1-10.5-1.3-21.4-3.5-31.7
				c-1.1-5.3-3.7-11.9-9.7-13c-6.9-1.4-11.4,5.1-13.7,10.6c-4,9.5-6.2,20.2-8.1,30.3c-4.3,23.5-4.6,47.5-1,71.1
				c0.6-0.6,1.2-1.2,1.8-1.8c-10.2-3.5-6,25.3-5.6,29.3c0.2,1.9,3.1,2,3,0c-0.3-5.2-5.7-7.7-10.5-6.5c-7.5,1.8-8.3,10.9-7.7,17.2
				c1.9,21,9.4,41.6,20.6,59.4C704.7,961.9,707.3,960.4,706.2,958.8L706.2,958.8z"/>
		</g>
	</g>
	<g>
		<g>
			<path class="st0" d="M743.3,857c0.5-3.6,1.2-7.1,2.1-10.7c0.5-1.7,1-3.5,1.6-5.2c0.3-0.8,3-8.2,5-4.5c0.7,1.4,2.7,0.7,2.8-0.8
				c0.7-14.1,4.3-27.8,11-40.3c1.4-2.7,5.2-10.9,8.6-5.6c1.6,2.6,1.5,6,1.6,8.9c0.2,7.5,0.3,15,0.3,22.5c0,30.1-1.5,60.1-4.6,90
				c-0.2,1.7,2.5,2,2.9,0.4c0.7-2.3,8-17.4,11.7-9.6c1.5,3.2-0.1,9.6-0.4,13c-0.8,10-1.9,20-3.4,30c-0.3,1.9,2.6,2.7,2.9,0.8
				c1.2-7.7,2.1-15.4,2.9-23.2c0.4-4.4,0.8-8.9,1.1-13.4c0.2-2.8,0.6-5.9-0.3-8.6c-1.2-3.6-4.5-5-7.9-3.2c-4.9,2.6-7.9,8.3-9.4,13.3
				c1,0.1,2,0.3,2.9,0.4c3.8-37.4,5.2-75,4.3-112.5c-0.1-4.2-0.2-10.8-4.6-13.2c-4.4-2.4-7.6,2-9.5,5.3c-8,13.6-12.2,29.1-13,44.8
				c0.9-0.3,1.9-0.5,2.8-0.8c-1.7-3.2-5.7-3-7.9-0.4c-2,2.4-2.8,6.1-3.6,9c-1.2,4.1-2,8.2-2.6,12.4C740.1,858.1,743,858.9,743.3,857
				L743.3,857z"/>
		</g>
	</g>
	<g>
		<g>
			<path class="st0" d="M262.6,1168.2c-14.2-11.4-26.6-25-36.5-40.3c-4.8-7.4-8.9-15.1-12.5-23.1c-3.2-7.2-9.6-19.7-2.2-26.3
				c0.5-0.5,0.5-1.3,0.2-1.8c-2-3.8-18.6-35.1-11.5-36.6c1-0.2,1.3-1.4,0.9-2.2c-9.1-17.7-18.3-35.9-22.2-55.7
				c-1.9-9.4-3.2-20.6-0.7-30c0.7-2.9,0.6-2.5,3.8-3.5c3.2-1,3.2-1,5.6,1.3c1.9,1.9,3.4,4.3,4.8,6.6c2.8,4.4,5.4,8.9,7.9,13.5
				c9.8,18.1,18.2,36.9,27,55.4c9.3,19.5,18.7,38.9,28,58.4c10.5,21.9,21,43.7,31.5,65.6c0.8,1.7,3.4,0.2,2.6-1.5
				c-21.3-44.3-42.5-88.7-63.8-133c-10-20.9-19.1-42.9-32.2-62.2c-3.2-4.7-10-12.4-15.8-6.4c-2.1,2.2-2.6,5.3-3,8.2
				c-0.7,5.6-0.8,11.2-0.4,16.8c1.9,24.3,13.2,46.7,24.2,68.1c0.3-0.7,0.6-1.5,0.9-2.2c-6.1,1.3-4.1,9-2.7,13.1
				c3.4,9.6,7.5,18.9,12.4,27.9c0.1-0.6,0.2-1.2,0.2-1.8c-5.8,5.2-4.6,13.4-2.4,20c3.3,9.5,8,18.8,13.1,27.4
				c10.6,17.8,24.3,33.5,40.4,46.5C262,1171.5,264.1,1169.4,262.6,1168.2L262.6,1168.2z"/>
		</g>
	</g>
	<g>
		<g>
			<path class="st0" d="M250.5,1064c-3.4-5.5-5.9-11.3-7.4-17.6c-0.7-3.2-1.1-6.4-1.3-9.7c-0.1-1.4-0.1-2.8,0-4.3
				c0-0.6,0.1-1.1,0.1-1.7c-0.3-2.4,0.8-3.5,3.4-3.4c0.9,1.7,3.4,0.2,2.6-1.5c-8.3-17.6-13.2-36.7-14.2-56.1
				c-0.4-7.7-2-20.5,3.7-26.7c6.8-7.5,15.8,16.9,17.5,21.2c14.1,35.8,26.8,72.2,38,109.1c6.4,21,12.3,42.2,17.7,63.5
				c0.5,1.9,3.4,1.1,2.9-0.8c-11.1-43.5-24.2-86.5-39.2-128.8c-3.7-10.5-7.6-20.9-11.6-31.3c-3.6-9.4-6.7-19.3-11.9-28
				c-2.5-4.2-7.7-13.1-13.6-9c-6.2,4.3-6.6,14.1-6.7,20.8c-0.4,23.4,4.9,46.5,14.8,67.7c0.9-0.5,1.7-1,2.6-1.5c-1.2-2.3-3.7-3-6-1.7
				c-3.3,1.9-3.1,6.8-3.2,10c-0.1,11.1,3.2,22,9.1,31.4C248.9,1067.2,251.5,1065.7,250.5,1064L250.5,1064z"/>
		</g>
	</g>
	<g>
		<g>
			<path class="st0" d="M1333.3,1032.4c-7.9-12.2-14.3-25.3-18.9-39c-2.2-6.6-4.1-13.4-5.5-20.3c-1.5-7.3-2.3-14.8,1.4-21.6
				c-0.8,0.1-1.6,0.2-2.4,0.3c6.7,5.9,11.4,13,14.1,21.5c0.6,1.8,3.4,1.1,2.9-0.8c-10.7-39.8-15.9-81.8-5.7-122.3c-1,0-1.9,0-2.9,0
				c4.2,14.2,7.4,28.7,9.6,43.4c1-0.3,1.9-0.5,2.9-0.8c-3.2-17.1-3.9-34.5-2-51.8c1.7-15,4.1-33.6,16.1-44.2c-0.7,0-1.4,0-2.1,0
				c3.3,4.2,3.1,9.6,3.2,14.7c0.1,4.5,0.1,9,0,13.6c-0.1,9.7-0.3,19.4-0.5,29.1c-0.5,19.1-1.3,38.2-1.6,57.2
				c-0.7,37.7,0.4,75.6,8,112.7c0.4,1.9,3.3,1.1,2.9-0.8c-8-39.4-8.6-79.7-7.7-119.7c0.4-19.7,1.2-39.5,1.7-59.2
				c0.2-9.7,0.3-19.4,0.3-29.1c0-7.1,0.6-14.7-4.1-20.6c-0.5-0.7-1.6-0.5-2.1,0c-11.8,10.4-14.6,27.8-16.5,42.6
				c-2.5,18.7-1.8,37.7,1.6,56.3c0.4,1.9,3.2,1.1,2.9-0.8c-2.2-14.7-5.4-29.2-9.6-43.4c-0.4-1.4-2.5-1.5-2.9,0
				c-10.3,41-5.1,83.6,5.7,123.9c1-0.3,1.9-0.5,2.9-0.8c-2.8-8.9-7.8-16.6-14.8-22.8c-0.7-0.6-1.9-0.6-2.4,0.3
				c-6.8,12.3-1.2,28.5,2.7,40.9c4.8,15.2,11.6,29.7,20.3,43.1C1331.7,1035.5,1334.3,1034,1333.3,1032.4L1333.3,1032.4z"/>
		</g>
	</g>
	<g>
		<g>
			<path class="st0" d="M1346,963c-0.6-16.9,1.8-33.5,7.3-49.4c-0.6,0.3-1.2,0.7-1.8,1c1,1.2,2,2.4,3,3.6c0.3,1.7,2.9,1.2,2.9-0.4
				c0.8-17.4,4-34.6,9.6-51.1c2.8-8.3,6.2-16.4,10.2-24.3c3.8-7.5,7.9-15.3,15.3-19.9c-0.7-0.6-1.5-1.1-2.2-1.7
				c-10.4,57.9-18.4,116.1-24,174.7c1,0,2,0,3,0c0-11.8,3.8-22.9,11.2-32.1c-0.9-0.4-1.7-0.7-2.6-1.1c-0.1,13-1.3,26-3.7,38.8
				c-0.4,1.9,2.2,2.6,2.9,0.8c2.4-6.4,7.3-11.2,13.7-13.5c-0.6-0.6-1.2-1.2-1.8-1.8c-2.5,12.5-5,25.1-7.6,37.6
				c-0.4,1.9,2.5,2.7,2.9,0.8c2.5-12.5,5-25.1,7.6-37.6c0.2-1-0.7-2.3-1.8-1.8c-7.5,2.8-13,8.2-15.8,15.6c1,0.3,1.9,0.5,2.9,0.8
				c2.5-13.1,3.8-26.3,3.9-39.6c0-1.2-1.7-2.1-2.6-1.1c-7.9,9.8-12.2,21.6-12.1,34.2c0,2,2.8,1.9,3,0
				c5.5-58.3,13.5-116.3,23.9-173.9c0.2-1.2-1-2.4-2.2-1.7c-6.5,4.1-10.7,10.4-14.3,17.1c-4.4,8.2-8.2,16.8-11.3,25.6
				c-6.4,17.8-9.9,36.4-10.8,55.3c1-0.1,2-0.3,2.9-0.4c-0.6-3-2.2-4.7-5.1-5.7c-0.8-0.3-1.6,0.3-1.8,1c-5.5,16.2-8,33.1-7.4,50.2
				C1343,964.9,1346,964.9,1346,963L1346,963z"/>
		</g>
	</g>
	<g>
		<g>
			<path class="st0" d="M1168.7,505.3c1.2-12.5,17.1-7,23.6-3.3c5.7,3.2,11.6,7,18.4,6.7c12-0.4,19.4-11.8,30.6-14.3
				c12.9-2.9,20.9,12.5,33.7,11.1c5.8-0.7,10.6-4.5,15.6-7.3c7.6-4.3,13.6-3.5,20.7,1.4c5.2,3.5,10,7.1,16.6,6.8
				c4.7-0.3,8.8-2.5,9.9-7.2c0.5-1.9-2.4-2.7-2.9-0.8c-2,8.1-13,4.8-17.7,1.7c-5.1-3.3-10.2-7.8-16.6-8
				c-13.5-0.4-21.1,15.6-35.4,8.3c-5.4-2.8-10-7-15.9-8.7c-4.9-1.3-9.8-0.3-14.3,1.9c-5.4,2.6-10,6.5-15.2,9.3
				c-8.2,4.3-15.3,2.6-23.1-1.8c-6.2-3.5-13.2-8.1-20.8-6.5c-5.5,1.1-9.7,5.1-10.3,10.7C1165.5,507.2,1168.5,507.2,1168.7,505.3
				L1168.7,505.3z"/>
		</g>
	</g>
	<g>
		<g>
			<path class="st0" d="M1268.3,544.2c4.2-7.6,14.3-11.2,22-6.8c5.3,3,9.6,9.4,16.3,9.4c7.8,0,11.5-8.6,18.3-11
				c9.8-3.4,15.6,2.8,23,7.7c4.8,3.2,10,3.7,14.9,0.4c5.7-3.8,9.5-11.7,17.1-12.1c11.5-0.6,28.1,19.2,38.7,5.5
				c1.2-1.5-0.9-3.6-2.1-2.1c-8.9,11.5-25.5-6.2-35.8-6.4c-4.8-0.1-8.6,2.3-12,5.5c-3.9,3.7-7.9,9.6-14,8.9
				c-6.1-0.7-10.1-6.9-15.5-9.4c-4.7-2.2-10.3-2.5-15.2-0.8c-5.9,2-8.8,7.6-14.2,10c-6.7,3.1-11.9-4.1-17-7.4
				c-9.2-6.1-22.1-2.4-27.3,7.2C1264.8,544.4,1267.4,545.9,1268.3,544.2L1268.3,544.2z"/>
		</g>
	</g>
	<g>
		<g>
			<path class="st0" d="M90.6,522.5c0.1-5.6,6.4-5.2,9.6-3.5c2,1.1,3.7,2.7,5.4,4.2c2.3,2,4.6,4.1,7.4,5.2c4.7,1.8,9.1,0.5,13-2.4
				c4.6-3.4,8.3-9,14-10.6c7-2,12.8,4.2,18.2,7.5c4.4,2.7,9.1,4.4,14.2,2.4c6.9-2.7,10.1-10.5,17.1-13.1c3.8-1.4,6.4-0.8,9,2.5
				c1,1.2,1.6,2.5,2.8,3.6c1.6,1.5,3.7,2.3,5.9,2.6c4.8,0.6,9.5-1.6,11.9-5.8c1-1.7-1.6-3.2-2.6-1.5c-2.2,3.9-7.4,5.6-11.5,3.6
				c-3.3-1.7-4.2-5.8-7.4-7.6c-4.9-2.8-10.9,0-14.8,3.3c-6.7,5.6-11.7,13.8-21.5,8.5c-5.1-2.8-9.4-7.4-15.1-8.8
				c-4.9-1.2-9.4,0.6-13.2,3.6c-4.8,3.7-9.5,10.9-16.3,10.2c-7.8-0.8-11.4-10.4-19.3-11.4c-4.9-0.7-9.7,2.5-9.8,7.6
				C87.5,524.4,90.5,524.4,90.6,522.5L90.6,522.5z"/>
		</g>
	</g>
	<g>
		<g>
			<path class="st0" d="M168.3,499.5c1.7-5.6,6.4-9.4,12.1-10.5c2.8-0.6,5.8-0.5,8.5,0.5c3.2,1.2,4.9,3.6,7.4,5.7
				c7,6,14,0.9,20.3-3.5c4.1-2.9,9.1-6.5,13.8-2.5c2.9,2.5,4.4,6.8,8.3,8.1c4.3,1.3,6.9-2.1,9.5-4.8c6.5-6.9,15-2.2,21.5,2.2
				c1.6,1.1,3.1-1.5,1.5-2.6c-4.9-3.3-11-7-17.2-6.3c-2.3,0.3-4.3,1.1-6,2.6c-2.9,2.4-5.6,8.4-10.2,4.7c-3.7-2.9-5-7.8-10.2-8.7
				c-4.2-0.7-8.1,1.8-11.5,4c-3.9,2.6-9.2,7.7-14.4,6.4c-3.4-0.9-5.3-4.5-8.1-6.4c-1.9-1.3-4.1-2.2-6.5-2.6
				c-9.2-1.6-19,3.7-21.6,12.8C164.8,500.5,167.7,501.3,168.3,499.5L168.3,499.5z"/>
		</g>
	</g>
	<g>
		<g>
			<path class="st0" d="M755.5,119.6c-1-4.7,4.5-6.6,7.8-5.8c2.4,0.5,4.6,2.3,6.4,3.8c2.8,2.4,5.4,5.2,8.6,7.1
				c5.6,3.3,10.9,2.2,16-1.3c2.8-1.9,5.5-4.4,8.7-5.5c4.2-1.5,8-0.1,11.7,2c4.9,2.8,9.4,6.9,15.2,7.8c5.9,0.9,10.6-2.4,14.8-6.2
				c6.1-5.5,11.4-9.7,20-6.8c11,3.7,21.5,13.7,33.1,5.7c3.2-2.2,5.9-5.5,9.6-6.8c5.5-1.9,7.4,3.4,11.2,6c5.6,4,13,3.2,18.3-0.9
				c1.5-1.2-0.6-3.3-2.1-2.1c-4.5,3.5-11,3.6-15.4-0.2c-2.4-2.1-3.9-4.8-7-5.9c-5.9-2-10.8,3.4-15,6.6c-13.6,10.1-25.1-7-39.1-6.6
				c-6.5,0.2-11,4.7-15.5,8.8c-2.9,2.6-6.2,5.4-10.4,5.5c-4,0-7.5-2.2-10.7-4.2c-5-3.2-10.3-7.2-16.5-6.3
				c-6.9,0.9-10.9,7.6-17.5,9.3c-10.1,2.6-15.4-11.8-24.9-12.9c-5.7-0.7-11.3,3.9-10,9.8C753,122.3,755.9,121.5,755.5,119.6
				L755.5,119.6z"/>
		</g>
	</g>
	<g>
		<g>
			<path class="st0" d="M864.4,146.9c3.9-7.8,13.1-8.9,20.7-6.3c6,2,11.6,7.7,18,8.3c5.4,0.4,8.7-3.6,12.5-6.7
				c7.1-5.8,14.9-4.7,22.5-0.7c4.3,2.3,9.2,5.3,14.3,4.6c5.5-0.8,7.7-5.5,12-8.2c5.3-3.3,11.1,3,16.8,3.3c5.2,0.3,10.1-1.9,13.6-5.6
				c1.3-1.4-0.8-3.5-2.1-2.1c-2.9,3-6.6,4.8-10.8,4.8c-4.2-0.1-6.7-2.4-10.4-3.9c-3.7-1.5-6.9-0.6-9.9,1.9c-2.5,2-4.5,4.9-7.5,6.2
				c-4.3,1.8-8.5-0.4-12.3-2.4c-5-2.6-9.9-5.3-15.8-5c-5.3,0.3-9.7,2.6-13.6,6c-4.1,3.6-7.7,6.2-13.3,3.4c-3.3-1.6-6.3-3.8-9.7-5.3
				c-9.5-4.2-22.3-4.2-27.5,6.3C861,147.1,863.5,148.6,864.4,146.9L864.4,146.9z"/>
		</g>
	</g>
	<g>
		<g>
			<path class="st0" d="M180.2,726.2c4.6-3.7,11.2-8.4,16.9-3.9c2.4,1.9,3.9,4.8,6.5,6.5c3.7,2.5,7.7,1.9,11-0.9
				c4.3-3.6,8-12.2,14.8-9.9c5.3,1.7,8.4,7.6,13.2,10.2c11,6,15.8-7.3,23.2-12.2c7.6-5,11.2,5.6,16.2,9.1c3.8,2.6,9,3.3,11.8-0.8
				c1.1-1.6-1.5-3.1-2.6-1.5c-4.8,7-14.2-9-18.5-10.6c-4.1-1.5-8,0.5-11,3.3c-3.7,3.5-6.8,9.6-12.1,11c-6.3,1.6-11-5.7-15.4-9
				c-3.3-2.5-7.2-3.7-11.1-2c-4.7,2.1-6.9,7.2-10.8,10.3c-6.8,5.4-10.6-4.9-16-7.5c-6.6-3.1-13.5,1.7-18.4,5.7
				C176.6,725.3,178.7,727.4,180.2,726.2L180.2,726.2z"/>
		</g>
	</g>
	<g>
		<g>
			<path class="st0" d="M837.6,684.3c0.7-6,8.1-5.2,11.8-3.2c2.7,1.4,4.9,3.5,7.4,5.2c4.1,2.8,9,4.9,14,3.1
				c5.8-2.2,9.2-7.6,15.4-9.3c7.8-2.2,14.1,0.5,21.1,3.6c4.1,1.8,8.7,3.4,13.1,1.5c4.8-2,7.7-8.4,13.6-6.8
				c7.7,2.1,12,11.3,20.8,10.1c1.9-0.2,1.9-3.2,0-3c-9.5,1.2-14.5-11.9-24.2-10.3c-6,0.9-8.6,8.1-15,7.9c-6.9-0.2-12.8-5.7-19.7-6.7
				c-6-0.8-12.2,0.5-17.3,3.8c-2.7,1.7-4.8,4.3-7.6,5.7c-5.5,2.9-10.4-0.5-14.7-3.7c-4.3-3.1-9-6.8-14.7-5.5
				c-3.9,0.9-6.6,3.6-7.1,7.6C834.4,686.2,837.4,686.2,837.6,684.3L837.6,684.3z"/>
		</g>
	</g>
	<g>
		<g>
			<path class="st0" d="M1254.9,229.9c0.2-4.3,5.5-5.3,9-4.8c3.6,0.5,6.8,2.8,10.1,4.2c5,2.2,9.4,2.2,14.3-0.2
				c3.6-1.7,6.8-3.8,10.8-4.4c4.5-0.6,8.7,0.4,12.7,2.7c4.8,2.8,9,6.3,14.8,6.6c10.1,0.6,18.7-7.1,27.3-11.4
				c6.7-3.4,12.9-4.3,19.6-0.5c5.1,2.8,10.1,6.9,16.3,6.2c7-0.8,8.9-8.6,15.5-10.5c7.7-2.2,16.3,1.3,23.2,4.4
				c1.7,0.8,3.3-1.8,1.5-2.6c-9.8-4.4-24-9.5-32.8-0.4c-3.5,3.6-5.9,7.2-11.7,5.7c-4.7-1.2-8.4-4.6-12.7-6.6
				c-4.9-2.3-10-2.3-15.1-0.6c-10.7,3.6-21.5,15.8-33.6,12.9c-7.3-1.8-12.2-8.1-20.1-9c-2.9-0.3-5.9-0.1-8.7,0.8
				c-3.9,1.2-7.1,3.9-10.9,5c-8.4,2.4-14.5-5.9-22.7-5.6c-4.9,0.2-9.6,2.7-9.9,7.9C1251.8,231.9,1254.8,231.9,1254.9,229.9
				L1254.9,229.9z"/>
		</g>
	</g>
	<circle class="st1" cx="243.3" cy="630.6" r="11.4"/>
	<circle class="st1" cx="858.2" cy="254.9" r="13.5"/>
	<circle class="st1" cx="1279.9" cy="649.1" r="7"/>
	<circle class="st1" cx="1380.5" cy="124" r="12.6"/>
	<circle class="st1" cx="195.7" cy="177.2" r="10.1"/>
	<circle class="st2" cx="226.2" cy="220.5" r="8.5"/>
	<circle class="st2" cx="216" cy="666.3" r="10.2"/>
	<circle class="st2" cx="1321.4" cy="154.6" r="7.3"/>
	<circle class="st2" cx="818.6" cy="606.1" r="9.1"/>
	<circle class="st2" cx="1252" cy="690.7" r="8.2"/>
	<g>
		<g>
			<path class="st2" d="M1234.1,428.5c3.2-3.1,6.8-6.4,11.2-7.6c5.5-1.5,7.7,2.1,12.1,4.2c4,1.9,7.8,0.5,11.4-1.5
				c2.4-1.4,4.8-3.2,7.5-3.9c4.3-1.1,6.3,2,9.1,4.4c3.4,2.9,7.2,3.3,11.5,1.9c5-1.6,10.7-6.5,16.2-4.8c5.2,1.6,7,8.1,13.1,8.4
				c5.2,0.2,9.4-3.9,13.4-6.5c8.7-5.6,16.8-1.3,24.6,3.8c1.6,1.1,3.1-1.5,1.5-2.6c-5.6-3.8-12.2-7.9-19.3-7.1
				c-6.5,0.7-10.6,5.9-16.3,8.4c-7.9,3.5-10.6-6.7-17.6-7.7c-5.3-0.7-10.2,2.7-14.9,4.6c-4.2,1.7-7.4,1.7-10.9-1.4
				c-1.8-1.6-3.2-3.4-5.6-4.3c-4.8-1.7-9.2,1.6-13.2,3.9c-4.2,2.4-7,3.1-11.3,0.3c-2.4-1.6-4.2-3.1-7.2-3.4
				c-6.8-0.7-12.7,4.5-17.2,8.9C1230.6,427.7,1232.7,429.9,1234.1,428.5L1234.1,428.5z"/>
		</g>
	</g>
	<g>
		<g>
			<path class="st2" d="M129.6,872.8c3.8-4.6,8.6-4.3,13.2-1.4c2.5,1.5,4.5,2.8,7.5,2.6c5.3-0.4,9.3-4.7,13.7-7.1
				c4.7-2.6,7.8-1.6,11.7,2c2.1,2,4.1,4,7,4.7c5,1.1,9.3-2.2,13.1-5c2.7-2,5.5-4.4,8.8-5.1c4-0.9,7.4,1.2,10.7,3
				c5.3,2.8,10.3,4.5,15.8,1.1c2.6-1.6,4.7-3.9,7.2-5.6c4.1-2.7,7.8-2.1,12.2-0.8c5.2,1.5,10.4,3.4,14.9-0.5
				c1.5-1.3-0.7-3.4-2.1-2.1c-5.5,4.6-14.7-2.5-21.2-1.4c-6.4,1.1-9.6,7.7-15.6,9.3c-7.2,1.8-12.9-6.3-20.1-6.1
				c-5.6,0.1-9.9,4.2-14.1,7.2c-3.1,2.2-6.8,4.6-10.7,2.6c-2.8-1.5-4.5-4.4-7.1-6.1c-4.8-3.1-9.6-1.2-14,1.6
				c-2.3,1.5-4.4,3.2-6.9,4.4c-4.9,2.3-7.4-0.6-11.6-2.6c-5.1-2.5-11-0.9-14.5,3.4C126.3,872.2,128.4,874.3,129.6,872.8L129.6,872.8
				z"/>
		</g>
	</g>
	<g>
		<g>
			<path class="st1" d="M755.2,72.3c3,4.8,8,7.8,13.6,8.2c7.4,0.5,10.5-4.1,16.6-7c7.4-3.5,13.1,5.5,20.8,4.4
				c5.6-0.8,9.9-5.1,14.5-8.1c3.3-2.2,6.9-3.8,10.9-2.7c3.3,0.8,6.1,2.9,9,4.5c4.8,2.7,9.8,4.1,14.6,0.7c3.2-2.2,5.3-6.2,9.3-7.2
				c5.7-1.5,11,3.1,15.6,5.7c5.3,3.1,11.8,5.3,17.3,1.5c1.6-1.1,0.1-3.7-1.5-2.6c-7.7,5.4-16.2-3.6-23.1-6.4
				c-5.4-2.2-10.3-1.7-14.6,2.2c-3.3,2.9-5.7,6.6-10.7,5.8c-3.2-0.5-6.1-2.7-8.8-4.3c-4.4-2.5-9-4.2-14-2.6
				c-5.1,1.7-8.9,5.6-13.4,8.3c-3,1.8-6.2,3-9.6,1.9c-3.1-0.9-5.5-3.2-8.5-4.3c-6.4-2.3-10.2,1.7-15.3,4.9c-6.8,4.2-15.6,2.4-20-4.4
				C756.7,69.1,754.1,70.6,755.2,72.3L755.2,72.3z"/>
		</g>
	</g>
</g>
<g id="phone">
	<path class="st3" d="M317.4,174.8c-1.4,5.5,0,978.4,0,978.4l354.4-186.1V92.7L317.4,174.8z"/>
	<g>
		<g>
			<path class="st4" d="M577,883.1c31.5,8.4,62.8,17.8,93.8,28c1.8,0.6,2.6-2.3,0.8-2.9c-31-10.2-62.3-19.6-93.8-28
				C575.9,879.7,575.1,882.6,577,883.1L577,883.1z"/>
		</g>
	</g>
	<path class="st3" d="M509.5,970.7c-10.2,3.7-24.9,7.8-43.1,8.6c-20.1,1-36.6-2.3-47.5-5.4c-1.7,0.1-11.1,0.2-18.8-7
		c-4.9-4.6-8.1-11-8.4-18.3l-7.9-218.3c-0.5-14.5,10.8-26.7,25.3-27.2c11.3-3.9,27.9-8.2,48.5-8.5c17.3-0.2,31.7,2.4,42.2,5.2
		c1.7-0.1,11.1-0.2,18.8,7c4.9,4.6,8.1,11,8.4,18.3l7.9,218.3C535.3,958,524,970.2,509.5,970.7z"/>
	<g>
		<g>
			<path class="st4" d="M384.2,726.2c43,23.1,98.6,13.6,140.4-7.3c1.7-0.9,0.2-3.5-1.5-2.6c-40.9,20.4-95.4,29.9-137.4,7.3
				C384,722.7,382.4,725.3,384.2,726.2L384.2,726.2z"/>
		</g>
	</g>
	<g>
		<g>
			<path class="st4" d="M384.5,754c43.2,31.4,103.2,28,142.7-7.8c1.4-1.3-0.7-3.4-2.1-2.1c-38.6,35-97,37.9-139.1,7.3
				C384.5,750.3,383,752.9,384.5,754L384.5,754z"/>
		</g>
	</g>
	<g>
		<g>
			<path class="st4" d="M385.2,787.5c6.4,10.1,20,15,30.8,18.7c13.3,4.5,27.3,6.6,41.3,6.1c26.2-0.8,51.5-10.6,71.8-27.2
				c1.5-1.2-0.6-3.3-2.1-2.1c-19.2,15.7-43.1,25.1-67.9,26.3c-12.5,0.6-25.1-0.9-37.2-4.4c-6.1-1.7-12.1-4-17.8-6.7
				c-6.1-3-12.5-6.2-16.3-12.1C386.8,784.3,384.2,785.8,385.2,787.5L385.2,787.5z"/>
		</g>
	</g>
	<g>
		<g>
			<path class="st4" d="M386,824.2c8.2,9.6,20.1,15.2,31.9,19.1c13.2,4.4,27.3,6.4,41.2,5.8c26.4-1.1,51.7-11.6,71.5-29.1
				c1.5-1.3-0.7-3.4-2.1-2.1c-19.2,16.9-43.8,27.1-69.4,28.2c-12.8,0.5-25.6-1.1-37.9-4.9c-12.2-3.7-24.7-9.3-33.1-19.1
				C386.9,820.6,384.8,822.7,386,824.2L386,824.2z"/>
		</g>
	</g>
	<g>
		<g>
			<path class="st4" d="M388.2,863c18.8,17.9,44.7,27.2,70.6,26.4c27.1-0.9,52.8-12.4,73.1-30.1c1.5-1.3-0.7-3.4-2.1-2.1
				c-19.7,17.1-44.7,28.3-71,29.2c-25.1,0.8-50.2-8.1-68.5-25.5C388.9,859.6,386.8,861.7,388.2,863L388.2,863z"/>
		</g>
	</g>
	<g>
		<g>
			<path class="st4" d="M388.8,906.6c20.7,18.3,48.4,27.6,76,25.1c25.3-2.3,52.7-11.6,67.8-33.2c1.1-1.6-1.5-3.1-2.6-1.5
				c-14.7,21.1-42.4,30-67.1,31.9c-26.2,2-52.4-7-72.1-24.4C389.5,903.2,387.4,905.4,388.8,906.6L388.8,906.6z"/>
		</g>
	</g>
	<g>
		<g>
			<path class="st4" d="M391.4,939.3c21.2,14,46.6,21.1,72,20.3c25.1-0.8,51.7-8.9,70.1-26.6c1.4-1.3-0.7-3.5-2.1-2.1
				c-18.2,17.5-44.7,25.3-69.6,25.8c-24.4,0.4-48.6-6.5-68.9-19.9C391.3,935.7,389.8,938.2,391.4,939.3L391.4,939.3z"/>
		</g>
	</g>
	<g>
		<g>
			<path class="st4" d="M412.4,715.6c7.8-0.1,15.5-0.2,23.3-0.3c1.9,0,1.9-3,0-3c-7.8,0.1-15.5,0.2-23.3,0.3
				C410.5,712.7,410.5,715.7,412.4,715.6L412.4,715.6z"/>
		</g>
	</g>
	<g>
		<g>
			<path class="st4" d="M438.3,702.1c-1.9,5.2-3.9,11.2-1.1,16.5c1.8,3.5,5.4,5.6,9.3,4.8c4.6-0.9,5.5-4.5,5.7-8.6
				c0.2-4.1,1.3-9.7,6.5-10.2c6.6-0.6,5.7,10.7,6,14.3c0.2,1.9,3.2,1.9,3,0c-0.4-4.4,0.2-11.2-2.7-15c-2.6-3.3-7.2-2.8-10.5-0.7
				c-3.9,2.5-5.3,6.4-5.3,10.8c-0.1,7.6-7.8,8.8-10,1.4c-1.2-4.2,0.6-8.7,2-12.6C441.8,701.1,438.9,700.3,438.3,702.1L438.3,702.1z"
				/>
		</g>
	</g>
	<g>
		<g>
			<path class="st4" d="M467,712.6c5.9,0.1,11.8,0.3,17.6,0.4c1.9,0,1.9-3,0-3c-5.9-0.1-11.8-0.3-17.6-0.4
				C465,709.6,465,712.6,467,712.6L467,712.6z"/>
		</g>
	</g>
	<polygon class="st5" points="317.3,1079.4 671.8,908.9 671.8,967.1 317.4,1153.2 	"/>
	<circle class="st3" cx="509" cy="1017.7" r="14.4"/>
</g>
<g id="hand_right">
	<path class="st6" d="M1024.4,326.8c-5.4-0.3-9.9,2.5-23,15.6c-13.2,13.2-19.5,21.2-29.3,32.2c-3.5,4-0.8,0.8-36.7,36
		c-3.2,3.2-9,8.8-18.2,12.7c-2.9,1.2-9.6,3.9-17.7,3.8c-5-0.1-13.5-1.3-28-11.8c-4.2-3.1-13.6-10.3-34.7-37
		c-4.2-5.3-12.3-15.7-21.5-28.1c-6.3-8.6-14.8-15.7-20.1-25c-2.1-3.6-5.6-10.4-11.5-11.4c-0.6-0.1-3.8-0.5-5.5,1.3
		c-2.2,2.4-1,7.7,1.2,11c2.2,3.4,4.6,3.6,5.9,7.1c0.8,2,0.7,3.9,0.5,5.1c-9.2-5.3-17.2-9.2-23.1-12c-11.1-5.2-17.3-7.2-23.1-8.6
		c-14.6-3.5-19.9-1.3-22.6,0.6c-0.7,0.5-4.7,3.2-4.3,6c0.5,3.5,7.6,5.1,13,6.4c8.8,2.1,14.6,1.6,14.7,2.5c0.1,1.1-9.4,2-22,7.3
		c-5.1,2.2-10.2,4.8-13.9,10.1c-0.5,0.8-4.2,5.9-2.7,7.7c1.1,1.4,5.1,0.6,9.8-1.9c-0.4,0.6-2.7,4.3-1.2,6.8c1.6,2.8,6.8,2.2,9.6,1.9
		c5.1-0.6,8.1-2.3,11-3.5c3.9-1.6,10-3.1,18.9-1.9c-7.8,3.2-13.7,6.7-17.8,9.4c-8.8,5.8-10,8.5-10,10.7c0,2.2,1.2,5.2,3.5,6
		c4.8,1.7,8.5-7.9,17.7-8.6c2.8-0.2,5.6,0.8,11,2.8c6.9,2.6,10.9,5.2,13.7,6.7c5.1,2.7,13.1,5.2,25.7,3.7
		c14,16.2,26.8,28.6,36.1,37.2c21.9,20,33.2,30.1,51.8,36.3c15.4,5.1,28.2,5,36,4.9c29.2-0.4,50.4-11.2,60.2-16.4
		c11.6-6.1,32.8-17.2,48.6-41.2c6.8-10.3,10.3-21.2,17.3-43c2-6.3,3.4-11.3,2.4-17.5C1044.1,339.5,1034.9,327.4,1024.4,326.8z"/>
	<path class="st7" d="M723,383.4c-1-2.2,3.9-6.5,4.7-7.1c7-6.1,15.8-7.2,19.8-7.6c10.2-1,23.4-2.3,37.8,2.4
		c28.3,9.1,28.4,30.2,59.5,54.3c9.8,7.6,36.6,28.4,71.3,27.4c23.6-0.7,40.3-11.1,58.1-22.2c16.8-10.5,45-31.4,69.4-69.9
		c0,4.2-0.2,10.1-1.7,17c-3.9,18.9-13.5,31.4-19.5,39c-20.7,26.2-46.9,37.2-57.2,41.4c-11.2,4.6-26.7,10.8-47.7,10.7
		c-35.3-0.2-60.7-18.2-67.7-23.3c-7.9-5.8-18.7-17-40.5-39.4c-7.5-7.7-13.5-14.1-17.5-18.4c-1.9,1.2-5,2.9-8.9,3.2
		c-7.7,0.6-11.1-4.5-23.7-9.3c-8-3-11.9-4.5-16.1-3.3c-5.2,1.6-7.2,5.7-14.1,6.4C728.1,384.7,723.9,385.1,723,383.4z"/>
	<g>
		<g>
			<path class="st4" d="M1023.6,325.5c-20.2,9.5-34.7,26.8-48.8,43.5c-15.9,18.8-33.8,38.5-55.2,51.2c-26.5,15.7-50.1-6.9-67-25.6
				c-17.7-19.6-32.3-41.5-49-61.8c-4.5-5.6-9.3-11-14.3-16.1c-2.7-2.7-6.3-6.4-10.5-4.1c-2.9,1.6-4.1,5.6-3.5,8.7
				c1.3,6.7,10,10.7,8.8,18c-0.3,1.9,2.6,2.7,2.9,0.8c0.7-4.2-0.8-7.5-3.3-10.9c-1.5-2-3.4-3.8-4.5-6.1c-1.4-3-2.3-10.3,5.6-6.7
				c1.3,0.6,2.7,2.7,3.7,3.7c9,9.4,17.1,19.7,25,30.1c14.8,19.7,29.5,39.5,46.9,57c14.9,15.1,35.9,27.9,57.1,17.6
				c9.9-4.8,18.8-12.7,27-19.9c9.4-8.2,18.1-17.1,26.3-26.5c16.2-18.7,31.4-39.5,54.4-50.3C1026.9,327.3,1025.4,324.7,1023.6,325.5
				L1023.6,325.5z"/>
		</g>
	</g>
	<g>
		<g>
			<path class="st4" d="M753.3,338.7c-6.3-4.9-13.4-8-21.4-8.9c-4.3-0.5-9-0.2-13.1-2c-2.6-1.2-3.1-1.4-3.2-4.5
				c-0.1-3.1,0.1-2.9,2.7-3.8c2.9-1,5.9-1.4,8.9-1.5c10.3-0.4,20.5,3.1,29.8,7.3c9.7,4.3,18.9,9.6,27.7,15.4
				c1.6,1.1,3.1-1.5,1.5-2.6c-10.9-7.2-22.4-13.6-34.6-18.3c-10.7-4.1-22.9-6.7-34.1-3.2c-2.7,0.9-5.9,2.2-6.4,5.4
				c-0.7,4,3.2,7.1,6.4,8.5c4.3,1.9,9.1,1.7,13.7,2.2c7.4,0.7,14.2,3.5,20,8C752.7,342,754.8,339.9,753.3,338.7L753.3,338.7z"/>
		</g>
	</g>
	<g>
		<g>
			<path class="st4" d="M740,331.9c-8.8,1.4-17.3,4.3-25,8.9c-5.4,3.2-15.3,8.9-14.9,16.3c0.4,9,9.6,2.7,13.6,0.8
				c10-4.9,20.9-7.7,32-8.5c1.9-0.1,1.9-3.1,0-3c-6.5,0.5-13,1.5-19.3,3.4c-3.4,1-6.6,2.2-9.9,3.6c-2.8,1.2-6.1,3.9-9,4.5
				c-2,1.5-3,0-3.1-4.5c0.7-1,1.6-2,2.5-2.8c1.5-1.4,3.2-2.7,4.8-3.9c2.7-1.9,5.5-3.6,8.4-5.1c6.5-3.3,13.5-5.5,20.7-6.6
				C742.7,334.5,741.9,331.6,740,331.9L740,331.9z"/>
		</g>
	</g>
	<g>
		<g>
			<path class="st4" d="M714.3,353.9c-3.4,3.2-9.8,14.4-0.8,14.8c2.1,0.1,4.2-1.1,6.1-1.9c2.7-1.1,5.5-2.1,8.3-2.9
				c3.1-0.9,6.3-1.6,9.5-2.2c2.8-0.5,9.2-2.2,11.8-0.4c1.6,1.1,3.1-1.5,1.5-2.6c-4.5-3.2-14.5,0-19.3,1.1c-4,0.9-7.9,2.2-11.8,3.7
				c-1.7,0.7-7.4,4.1-7.4-1.4c0-2.1,2.8-4.9,4.2-6.2C717.9,354.7,715.8,352.6,714.3,353.9L714.3,353.9z"/>
		</g>
	</g>
	<g>
		<g>
			<path class="st4" d="M750,359.2c-8.8,3.2-18.3,6.7-24.8,13.7c-3.1,3.3-9.9,14.6-0.5,14.5c4.7-0.1,9.2-3.8,13.3-5.8
				c7.3-3.4,14.4-1.3,21.2,2.1c10.6,5.3,19.6,9.6,31.8,7.7c1.9-0.3,1.1-3.2-0.8-2.9c-11.6,1.8-20.2-2.9-30.3-7.8
				c-6.5-3.2-13.7-5.4-20.9-2.8c-3.4,1.3-6.4,3.4-9.7,4.9c-1.3,0.7-2.7,1.1-4.1,1.5c-2.1-1.7-2.5-3.4-1.1-5.1
				c0.6-1.9,2.8-3.8,4.2-5.2c6.2-6,14.6-9.1,22.5-11.9C752.6,361.5,751.8,358.6,750,359.2L750,359.2z"/>
		</g>
	</g>
	<g>
		<g>
			<path class="st4" d="M791.4,390.1c16.5,18.5,33.9,36.4,52.6,52.5c16.3,14.1,34.3,24.2,55.9,26.9c41.7,5.1,87.7-13.4,116.3-43.6
				c16.2-17.1,27.1-38.8,29.8-62.3c0.2-1.9-2.8-1.9-3,0c-4.8,42.3-36.6,75-74.4,91.5c-19.4,8.5-40.7,13.4-62,12.1
				c-22.7-1.4-42-10.9-59.2-25.5c-19.3-16.4-37.1-34.8-54-53.7C792.3,386.5,790.1,388.7,791.4,390.1L791.4,390.1z"/>
		</g>
	</g>
</g>
<g id="coins">
	<path class="st5" d="M459,407.6c-4.2,2.3-9.9,6.1-15.5,11.9c-24.1,25.3-18.7,62.3-17.8,68.4c1.6,11,6.3,43.1,34.2,58.8
		c17.7,10,35.9,8.3,43.4,7.2c-1.5-10.5-3.4-21.3-5.7-32.5C488.3,477.4,474.1,439.3,459,407.6z"/>
	<circle class="st3" cx="812" cy="438.6" r="62"/>
	<g>
		<g>
			<path class="st4" d="M808,394.7c0,5.4,0,10.8,0,16.2c0,1.9,3,1.9,3,0c0-5.4,0-10.8,0-16.2C811,392.8,808,392.8,808,394.7
				L808,394.7z"/>
		</g>
	</g>
	<g>
		<g>
			<path class="st4" d="M820.9,412c-7.1-3.7-15.7-3.1-21.6,2.7c-4.5,4.3-7.8,13.2-1.8,17.8c2.9,2.2,6.9,2.2,10.4,1.8
				c7-0.9,14.9-0.6,17.6,7.4c2.2,6.4-1.3,16.7-7.5,20c-6.7,3.6-14.2-0.8-19.7-4.5c-1.6-1.1-3.1,1.5-1.5,2.6
				c6.9,4.7,16.4,9.2,24.1,3.6c6.7-4.9,10.2-16.2,6.9-23.8c-3.4-7.7-11.1-9.5-18.7-8.5c-4.2,0.6-9.5,1.2-11.6-3.7
				c-1.4-3.2,1.3-7.8,3.4-10.1c4.9-5.1,12.2-5.9,18.4-2.7C821.1,415.5,822.6,412.9,820.9,412L820.9,412z"/>
		</g>
	</g>
	<g>
		<g>
			<path class="st4" d="M811.3,464.4c0,4.5,0,8.9,0,13.4c0,1.9,3,1.9,3,0c0-4.5,0-8.9,0-13.4C814.3,462.5,811.3,462.5,811.3,464.4
				L811.3,464.4z"/>
		</g>
	</g>
	<ellipse class="st3" cx="634" cy="279.4" rx="54.5" ry="59"/>
	
		<ellipse transform="matrix(0.9743 -0.2253 0.2253 0.9743 -95.3898 121.8013)" class="st3" cx="485.9" cy="478.8" rx="48" ry="77.1"/>
	<g>
		<g>
			<path class="st4" d="M629.3,236.2c0,5.3,0,10.7,0,16c0,1.9,3,1.9,3,0c0-5.3,0-10.7,0-16C632.3,234.3,629.3,234.3,629.3,236.2
				L629.3,236.2z"/>
		</g>
	</g>
	<g>
		<g>
			<path class="st4" d="M639.5,250.3c-6.9-1.2-13.8,1-18.6,6c-3.4,3.5-8.3,12.1-3,16.1c2.6,2,7.3,1.7,10.3,1.9
				c6.1,0.5,13.9,1.6,17.1,7.6c7.3,13.9-18.9,25.3-22.8,12.1c-0.5-1.8-3.4-1.1-2.9,0.8c2.2,7.5,11.1,9,17.7,7
				c7.5-2.3,13.3-9.5,11.8-17.6c-1.8-9.5-11.9-12-20.1-12.8c-1.4-0.1-2.8-0.2-4.2-0.3c-2.8-0.3-5.7-1.4-6-4.8
				c-0.2-2.2,2.4-5.8,3.8-7.3c4.1-4.5,10.2-6.8,16.2-5.7C640.6,253.5,641.4,250.6,639.5,250.3L639.5,250.3z"/>
		</g>
	</g>
	<g>
		<g>
			<path class="st4" d="M631.8,301.9c0,2.8,0,5.6,0,8.4c0,1.9,3,1.9,3,0c0-2.8,0-5.6,0-8.4C634.8,300,631.8,300,631.8,301.9
				L631.8,301.9z"/>
		</g>
	</g>
	<g>
		<g>
			<path class="st4" d="M473.5,429.5c1.9,5.3,3.9,10.7,5.8,16c0.7,1.8,3.6,1,2.9-0.8c-1.9-5.3-3.9-10.7-5.8-16
				C475.8,426.9,472.9,427.7,473.5,429.5L473.5,429.5z"/>
		</g>
	</g>
	<g>
		<g>
			<path class="st4" d="M492.6,442.6c-8.8,0.4-17,5.4-21.3,13.2c-3.7,6.8-4.7,17.2,1.9,22.6c9.4,7.7,21.2-6.6,31.7-1.5
				c8.1,3.9,5.6,14,1.9,20.2c-1.7,2.9-3.9,5.6-6.6,7.5c-1.9,1.4-8.8,5-10.8,2.1c-1.1-1.6-3.7-0.1-2.6,1.5c5.1,7.3,17.1-2.1,20.5-6.6
				c5.3-7,9.7-19.5,1.3-26c-3.9-3.1-9.2-3.4-13.9-2.5c-6.8,1.4-17.1,8.8-21.9,0.2c-7.1-12.8,7.3-27.2,19.6-27.8
				C494.5,445.5,494.5,442.5,492.6,442.6L492.6,442.6z"/>
		</g>
	</g>
	<g>
		<g>
			<path class="st4" d="M500.5,506.2c2.3,5.6,4.6,11.2,6.8,16.8c0.7,1.8,3.6,1,2.9-0.8c-2.3-5.6-4.6-11.2-6.8-16.8
				C502.6,503.6,499.7,504.4,500.5,506.2L500.5,506.2z"/>
		</g>
	</g>
</g>
<g id="leg_right">
	<path d="M1036.5,1045.1c0.4,12.7,0.9,25.5,1.3,38.2c-9.9,2.3-22.1,6-35.4,12.4c-14.1,6.7-25.8,8.5-28.4,17.2
		c-0.6,2.1-0.6,3.9-0.5,5.1c4.8-0.1,11.9-0.4,20.4-1.6c14-2,23.8-5.3,31.2-7.6c10.6-3.3,25.7-7.5,45.3-11.1
		c-0.4-3.7-0.8-7.4-1.1-11.1c-1.4-15.9-2-31.1-2.1-45.7C1057,1042.4,1046.7,1043.7,1036.5,1045.1z"/>
	<path class="st6" d="M980.3,580c-0.2,4.3-0.4,10.5-0.7,18c-0.5,13.4-2.2,63.2-1.4,121.8c1.8,133.2,15.7,245.7,19.4,274.6
		c2.5,19.8,4.9,36,6.4,46.3c4.1,2.1,8.7,3.9,13.8,5.1c30.8,7.7,58.4-9.3,67.3-15.3c-2.3-14.6-5.6-36-8.9-61.9
		c-7.2-55.7-16.4-128.9-15.9-218.6c0.2-38,2.2-89.5,9.8-150.6c2.6-6.9,14.3-39.5,1.5-51.7C1058.3,535.1,1020.4,545.3,980.3,580z"/>
	<path class="st8" d="M1042.7,619.3c-1.2,11.4-3,30.7-4.4,54.6c-2.2,36.6-7.7,152.8,15.5,308.7c2.3,15.6,5.5,35.7,9.9,59.2
		c7.1-3.8,14.3-7.6,21.4-11.3c-12.2-70.5-18-130.3-21-175.6c-2.6-39.1-3.2-70.4-3.5-87.9c-1.1-56.1,0.3-103.8,2-140.3
		C1056,624.3,1049.4,621.8,1042.7,619.3z"/>
	<g>
		<g>
			<path class="st4" d="M978.8,580c-5.2,120.5-1.6,241.3,11.1,361.2c3.5,33.4,7.8,66.7,12.7,99.9c0.3,1.9,3.2,1.1,2.9-0.8
				c-17.5-118.8-26.2-238.9-26-359.1c0.1-33.7,0.9-67.5,2.3-101.2C981.9,578.1,978.9,578.1,978.8,580L978.8,580z"/>
		</g>
	</g>
	<g>
		<g>
			<path class="st4" d="M1003.7,1042.6c27.2,11.7,59.4,7.4,82.5-11.1c1.5-1.2-0.6-3.3-2.1-2.1c-22,17.6-53,21.8-78.9,10.6
				C1003.4,1039.3,1001.9,1041.9,1003.7,1042.6L1003.7,1042.6z"/>
		</g>
	</g>
	<g>
		<g>
			<path class="st4" d="M1060.5,634c-4.6,103.4-1,207.1,11.1,309.9c3.4,28.8,7.4,57.4,12.1,86c0.3,1.9,3.2,1.1,2.9-0.8
				c-16.7-102-25.1-205.3-25.1-308.7c0-28.8,0.7-57.6,2-86.4C1063.6,632,1060.6,632,1060.5,634L1060.5,634z"/>
		</g>
	</g>
	<g>
		<g>
			<path class="st4" d="M1034.7,1049c0.5,11.4,1,22.9,1.6,34.3c0.4-0.5,0.7-1,1.1-1.4c-15.3,3.6-30,9.1-43.8,16.6
				c-3.7,2-29.8,14.8-21.2,20.5c5.2,3.5,13,1,18.4-0.3c8.9-2.2,17.8-4.3,26.7-6.5c17.8-4.3,35.5-8.7,53.3-13
				c0.6-0.1,1.2-0.8,1.1-1.4c-2-18.9-3.1-37.8-3.2-56.8c0-1.9-3-1.9-3,0c0.1,19,1.1,38,3.2,56.8c0.4-0.5,0.7-1,1.1-1.4
				c-14.3,3.5-28.6,7-42.8,10.5c-14.1,3.4-28.2,7.5-42.4,10.3c-1.8,0.4-3.7,0.6-5.5,0.6c-1.3,0-2.5-0.1-3.7-0.5
				c-1.8-1.4-2-2.4-0.3-3.2c1.4-2.2,5.9-4.3,8.1-5.7c5.3-3.5,10.8-6.7,16.4-9.5c12.2-6.2,25.2-10.8,38.5-13.9
				c0.6-0.1,1.1-0.8,1.1-1.4c-0.5-11.4-1-22.9-1.6-34.3C1037.6,1047.1,1034.6,1047.1,1034.7,1049L1034.7,1049z"/>
		</g>
	</g>
</g>
<g id="leg_left">
	<path d="M1233,1032.1c4.1,6,8.2,12.1,12.3,18.1c-2.2,4.5-5.9,11.6-11,20c-8.6,13.9-13.6,18.8-21,30.9c-3.4,5.6-8.1,14.1-12.6,25.4
		c3.1-1,7.7-2.8,12.8-5.8c10.1-6,14.1-12.2,23-21.4c12.2-12.7,13.8-10.5,24.5-21.6c5.3-5.5,12.8-14.3,20.3-26.9
		c-1.4-3.9-3-7.9-4.7-11.9c-4.2-9.7-8.7-18.5-13.2-26.2C1253.3,1019.1,1243.2,1025.6,1233,1032.1z"/>
	<path class="st6" d="M1023.8,580.2c-4.5,5.4-12.7,15.3-10.2,26c1.5,6.5,6.3,10.7,9.4,13c3.4,1.2,8.3,3.4,12.7,7.7
		c3.9,3.9,6.5,8.5,12.2,26.6c3.6,11.5,5.2,17.4,6,21.2c5.7,26.3,37.6,124.3,50.2,159c26.8,74.1,69.5,147.6,105.6,202.9
		c6.6-0.4,14.6-1.6,23.3-4.6c23.8-8.3,37.6-25.2,43.5-33.4c-5-10.6-12.2-26-20.6-44.7c-37.8-84.9-60.5-151.7-77.2-201.2
		c-32.2-95.3-48.6-157.8-52.2-172c-4.2-16.3-7.4-29.9-9.7-39.5C1106.4,543,1046.1,553.4,1023.8,580.2z"/>
	<path class="st7" d="M1097.1,559.8c3.7,15.2,9.3,37.8,16.7,65c9.6,35.3,36,129.7,82.5,250.9c14.6,37.9,34.4,87.1,59.9,143.8
		c6.8-6.6,13.7-13.2,20.5-19.8c-6.6-15.2-16-37.3-27.1-64c-25.3-61.1-45.3-109.3-66.8-170.9c-21.2-60.8-35.5-110.5-52.8-170.8
		c-8-27.8-14.3-51-18.8-67.6C1106.6,537.6,1101.9,548.7,1097.1,559.8z"/>
	<g>
		<g>
			<path class="st4" d="M1118.9,557.8c29.6,114.3,66.5,226.7,110.5,336.2c12.3,30.7,25.3,61.3,38.7,91.6c0.8,1.8,3.4,0.2,2.6-1.5
				c-47.8-107.8-88.7-218.6-122.4-331.7c-9.4-31.6-18.3-63.4-26.5-95.4C1121.3,555.2,1118.4,556,1118.9,557.8L1118.9,557.8z"/>
		</g>
	</g>
	<g>
		<g>
			<path class="st4" d="M1022.6,620.6c12.8,2.5,18.2,16.2,21.7,27.3c4.7,14.9,9,29.9,13.5,44.8c9.3,30.9,18.5,61.8,28,92.7
				c17.7,57.3,42.9,111.4,71.7,163.8c16.3,29.8,33.6,59,50.9,88.2c1,1.7,3.6,0.2,2.6-1.5c-31.4-53.1-62.9-106.3-88.5-162.4
				c-26.9-59-43.7-121.6-62.4-183.5c-5-16.4-9.1-33.4-15.2-49.4c-3.9-10.1-10-20.7-21.5-22.9
				C1021.5,617.4,1020.7,620.3,1022.6,620.6L1022.6,620.6z"/>
		</g>
	</g>
	<g>
		<g>
			<path class="st4" d="M1210.8,1038.9c26.4-3.4,50.6-17,67-38c1.2-1.5-0.9-3.6-2.1-2.1c-15.8,20.4-39.2,33.9-64.9,37.2
				C1208.9,1036.1,1208.9,1039.1,1210.8,1038.9L1210.8,1038.9z"/>
		</g>
	</g>
	<g>
		<g>
			<path class="st4" d="M1267.9,985.6c2.8,4.4,5.2,9.1,7.3,13.9c0.8,1.8,3.4,0.2,2.6-1.5c-2.1-4.8-4.5-9.4-7.3-13.9
				C1269.5,982.5,1266.9,984,1267.9,985.6L1267.9,985.6z"/>
		</g>
	</g>
	<g>
		<g>
			<path class="st4" d="M1231.7,1032.8c3,4,6,7.9,9,11.9c2.4,3.1,3.7,4.2,2,8.9c-0.7,2-2.2,3.9-3.3,5.8c-4.5,7.6-9.6,14.9-14.7,22.1
				c-9.8,14.1-19.6,28.3-25.5,44.6c-0.4,1,0.6,1.8,1.4,1.9c8,0.6,14-6.3,19.4-11.2c7.3-6.7,14.5-13.4,21.5-20.4
				c14.1-13.9,27.6-28.3,40.5-43.2c1.3-1.5-0.9-3.6-2.1-2.1c-11.7,13.5-23.9,26.7-36.6,39.3c-6.1,6.1-12.3,12.1-18.6,18
				c-3.2,2.9-6.3,5.9-9.6,8.8c-4.2,3.8-8.5,8.4-14.5,7.9c0.5,0.6,1,1.3,1.4,1.9c6.7-18.7,18.8-34.5,29.9-50.7c4.8-7,11-14.7,14-22.8
				c1.3-3.5,0.4-5.8-1.7-8.8c-3.2-4.5-6.7-8.9-10.1-13.4C1233.2,1029.8,1230.6,1031.3,1231.7,1032.8L1231.7,1032.8z"/>
		</g>
	</g>
	<g>
		<g>
			<path class="st4" d="M1262.1,1013.4c7,12.1,13,24.7,17.8,37.8c0.7,1.8,3.6,1,2.9-0.8c-4.9-13.4-10.9-26.2-18.1-38.5
				C1263.7,1010.2,1261.1,1011.8,1262.1,1013.4L1262.1,1013.4z"/>
		</g>
	</g>
</g>
<g id="torso">
	<path class="st1" d="M1023.8,322.4c-16.8,12.3-23.6,27.9-30.6,43.7c-10.7,24.1-12.2,44.1-14.7,80.5c-0.5,7.8-1.3,19.6-1.1,76.1
		c0.1,23.5,0.2,43,0.3,56.5c8.7,3.2,18.5,6,29.4,7.6c53.5,7.9,97.4-16.6,115.8-28.5c-2.8-15.9-5.6-31.9-8.4-47.8
		c0.9-24.9,4-44.7,6.6-58c4.7-23.6,9.4-34.8,14.4-64.6c5.8-35.1,3.3-44,0-50.4c-8.4-16.5-25.4-22.9-33.6-26
		C1076.5,301.8,1046,306.1,1023.8,322.4z"/>
</g>
<g id="hand_left">
	<path class="st6" d="M1134.1,342.7c-6.5,2.3-10.5,7.1-14.2,12.7c-9.2,13.9-12.8,27.1-14.2,32.3c-7,25.3-10.4,38-16.3,50
		c-4.8,9.9-12.1,24.6-27.5,36.6c-9,7.1-16.9,10.1-32.7,16.2c-12.5,4.8-25.4,9.7-42.9,11c-12.2,0.9-22.4-0.2-29.4-1.4
		c-14.9-3.6-25-9.1-31.8-13.8c-5.4-3.8-12.5-9.7-19.8-7.8c-1,0.3-4.6,1.3-5.3,3.8c-0.9,3.4,3.7,7.5,8.5,11.8
		c2.5,2.2,4.7,3.9,6.2,4.9c-9.4,4.3-17.2,8.4-23,11.5c-19.6,10.6-27.5,17.1-30.5,19.7c-2.1,1.7-7.7,3.5-8.6,8
		c-0.4,2,0.1,4.7,1.7,5.6c1.7,1,3.8-0.5,9.6-3.3c3.3-1.6,6.1-2.7,8-3.5c3.2,1.5,6.9,3,11,4.2c9.8,2.8,18.5,3.1,24.9,2.8
		c-3.8,3.1-7.1,5.5-9.3,7.1c-6.2,4.5-9.2,6-9.5,9c-0.2,1.9,0.6,4.1,2.2,5.1c3,1.9,8-1,10.9-2.7c7.9-4.5,16.9-6.9,25-11.2
		c6.7-3.6,16.4-8.7,28.9-14.6c22-3.1,38.5-5.4,46.9-6.6c11-1.5,35.7-5,65.9-11.7c11.5-2.6,20.8-4.9,31.3-11.3
		c2.3-1.4,12-7.4,21.6-18.7c9.2-10.8,13.5-20.7,18.7-33c5.8-13.5,8.5-24.2,11.2-34.3c4.3-16.4,5.7-27.5,6.1-30.9
		c1-8,1.9-19.1-0.6-32.2c-1.8-9.5-4-12.7-6.9-14.6C1143.9,339.1,1135.6,342.1,1134.1,342.7z"/>
	<path class="st9" d="M1150.2,343.4c-1.1,10.5-3.1,25.2-6.9,42.5c-5.4,24.8-9.9,44.9-19.8,62.6c-21.5,38-62.2,53-77.7,58.7
		c-17.5,6.5-43.2,11.1-94.5,20.3c0,0-4.2,0.8-43.5,16.5c-2.1,0.8-10.5,4.3-15.7,12.6c-0.8,1.3-3.9,6.1-2.3,8c1.8,2.2,8.8-0.5,12.4-2
		c16-6.6,38.1-17.6,53.9-25.8c17.4-2.5,31.6-4.4,41.2-5.7c52.5-6.9,67.7-7.7,89.3-17.6c9.2-4.2,19.5-9,30-19.2
		c12.8-12.3,18-24.9,25.7-43.4c8.3-20,10.9-34.6,14.7-55.8c2.3-13.1,3.2-22.3,0.6-33.2C1155.8,353.7,1152.7,347.5,1150.2,343.4z"/>
	<g>
		<g>
			<path class="st4" d="M916.3,497.2c-2.6-1.5-5.1-3-7.5-4.8c-1.3-1-2.6-2-3.8-3.1c-2.4-2.2-2.3-1.6-1.9-5.3
				c0.1-1.1,0.2-2.2,0.4-3.2c2-1,4.1-1.1,6.2-0.4c1.4,0.4,2.8,1.1,4.2,1.7c2.9,1.4,5.7,2.9,8.5,4.4c9.5,5.1,19,10.6,29.4,13.8
				c21.9,6.6,45.1,2.3,66.4-4.4c19.8-6.3,40.2-13.8,54.6-29.4c12.9-13.9,20.4-31.8,26.1-49.7c6-18.7,8.9-39.3,19.3-56.2
				c5.2-8.6,17.3-22.9,28.9-17.3c10.5,5.1,10.1,23.7,10,33.4c-0.2,23.2-6.7,46.6-14.3,68.4c-6.6,18.8-15.6,37.6-30.4,51.2
				c-19.1,17.6-45.3,21.2-69.8,25.6c-28.7,5.1-57.4,10-86.4,13.3c-1.9,0.2-1.9,3.2,0,3c27.3-3.2,54.4-7.7,81.4-12.4
				c23.7-4.2,49.7-6.9,69.7-21.5c16.7-12.1,27.3-30.3,34.9-49.1c9-22.4,16-46.9,17.7-71.1c1-14.7,0.6-53.4-24.5-43.5
				c-19.4,7.6-27,32.2-32.1,50.4c-5.8,21.1-11.4,42.7-23.3,61.3c-6.4,9.9-14.5,18.5-24.6,24.7c-11.1,6.9-23.8,11.4-36.2,15.4
				c-14.4,4.7-29.4,8.3-44.7,8.2c-15.7-0.1-29.3-5.3-43-12.6c-5.9-3.2-11.7-6.7-17.9-9.3c-4.2-1.8-9.3-3-13.1,0.4
				c-8.9,8,8.7,17.7,14.1,20.7C916.4,500.8,917.9,498.2,916.3,497.2L916.3,497.2z"/>
		</g>
	</g>
	<g>
		<g>
			<path class="st4" d="M913.9,497.7c-12.2,5.5-24,11.7-35.3,18.8c-5.7,3.5-11.2,7.3-16.6,11.2c-3.5,2.5-8.9,5.4-10.7,9.6
				c-1,2.3-0.7,5.4,1.4,7.1c3.5,2.7,8.1-0.7,11.2-2.3c12.3-6.5,24.8-12.6,37.5-18.1c1.8-0.8,0.2-3.4-1.5-2.6
				c-9.5,4.2-19,8.6-28.3,13.3c-4.3,2.2-9.1,6-13.8,7.1c-2.3,0.6-3.9,0-3.7-2.5c0.1-1.7,1-2.6,2.3-3.7c2.2-2,4.7-3.6,7.1-5.4
				c16.2-11.8,33.6-21.8,51.9-30C917.2,499.5,915.7,496.9,913.9,497.7L913.9,497.7z"/>
		</g>
	</g>
	<g>
		<g>
			<path class="st4" d="M871.5,538.4c12.3,2.4,24.6,0.9,35.9-4.5c1.7-0.8,0.2-3.4-1.5-2.6c-10.6,5-22.1,6.4-33.6,4.2
				C870.4,535.2,869.6,538,871.5,538.4L871.5,538.4z"/>
		</g>
	</g>
	<g>
		<g>
			<path class="st4" d="M878.2,540c8.5,5.7,18.6,7.4,28.6,5c1.9-0.5,1.1-3.4-0.8-2.9c-9.2,2.3-18.4,0.6-26.3-4.7
				C878.1,536.4,876.6,539,878.2,540L878.2,540z"/>
		</g>
	</g>
	<g>
		<g>
			<path class="st4" d="M907.1,542.6c-4.1,2.9-8,6-11.9,9.2c-2.7,2.3-6.8,4.8-7.8,8.4c-0.6,2.3,0,4.6,2.1,5.8
				c2.9,1.7,7.2-0.2,10-1.1c20.4-6.6,39.3-18.1,58.3-28c1.7-0.9,0.2-3.5-1.5-2.6c-13.7,7.2-27.3,14.7-41.3,21.2
				c-3.7,1.7-7.4,3.3-11.2,4.7c-2.7,1-7.6,3.5-10.5,3.3c-7.1-0.6,3.2-9,4.7-10.2c3.4-2.8,7-5.5,10.6-8.2
				C910.1,544.1,908.6,541.5,907.1,542.6L907.1,542.6z"/>
		</g>
	</g>
</g>
<g id="head">
	<path class="st6" d="M1042,170.2c-8.1,3.8-13.7,10.8-18.8,17.1c-2.6,3.2-9.9,12.7-14.6,27.2c-1.4,4.4-8.6,27.4-0.8,53.9
		c4,13.5,9.8,20.6,11.1,22.2c5.3,6.4,11.1,10.2,15,12.4c2.4,0.2,5.2,0.2,8.1,0c5.4-0.4,10-1.4,13.7-2.5c1.4,3.4,3.3,7.2,5.8,11.3
		c3.5,5.7,7.2,10.1,10.5,13.5c5-2.6,11.6-6.6,18.7-12.6c5.7-4.9,17.9-15.5,26.1-33.9c2.8-6.3,9.8-24.2,7-47.4
		c-0.8-6.3-2-16.3-7.8-26.9C1101.4,178.1,1065,159.5,1042,170.2z"/>
	<path class="st10" d="M1071.9,196.7c2.6,5.7,6,15.2,6.5,27.4c0.5,13.6-2.9,23.7-4.8,29.1c-9.5,27.1-30.7,43.5-39.8,49.8
		c3.6,0.4,8.4,0.6,14-0.2c7.4-1.1,13.2-3.7,16.9-5.7c3.1,6.1,6.2,12.2,9.3,18.2c-0.1,2.9,0.2,6.5,1.1,10.4
		c2.1,9.1,6.7,15.4,9.7,18.8c-0.3-5.5-0.4-13.4,1-22.7c0.8-5.2,3.6-21.8,14.3-40.8c7.9-14.1,11.2-13.7,16.9-26.9
		c6.4-14.8,6.1-24.2,5.9-27c-0.2-4.1-0.8-13.3-6.2-20.5C1108.6,195.4,1090.6,191.7,1071.9,196.7z"/>
	<path class="st2" d="M1006.6,221.1c0.2-0.9,3.1-12.2,8-21c9.2-16.2,26.5-24.6,32.2-27.2c1.6,6.7,6.1,21.2,18.9,34.7
		c13.4,14.1,28.4,19.2,35.1,21c1.2-1,4.9-3.9,9.2-3.1c6.2,1.2,8.9,9.4,9,14.8c0,1.7-0.1,7-4.2,11.6c-5.5,6.1-13.2,5.6-14.2,5.5
		c-5,5.5-11.8,14.2-17.2,26.2c-6,13.4-13,29.1-7,46.2c4.9,13.8,18,27.7,35,29.9c24.7,3.2,46.2-19.7,51.2-39.5
		c2.6-10.3-1.1-12.7-7.6-48.4c-4.9-27-3.3-28.4-7.9-49.8c-6-27.9-9.2-42-18.5-51.2c-12.7-12.4-29.3-13.9-46.7-15.4
		c-20.5-1.8-47.3-4.2-65.9,14.4c-10.8,10.8-17.9,27.8-16.5,45c0.7,8,3,14.4,5,18.6C1004.7,230.4,1005.3,226.1,1006.6,221.1z"/>
	<path class="st2" d="M1015.6,286c-3.4,0.1-8.9,17.1-4.8,34.2c1.7,6.9,5,20.9,17.7,26.5c11.7,5.1,28.7,1.9,35.3-9.9
		c4.4-8,2.3-16.6,1.6-19.3c-3.2-5.7-6.5-11.3-9.7-17c-2.2,0.8-4.8,1.7-7.8,2.2c-6.3,1.2-11.8,0.9-15.8,0.3c-2.2-1.1-5.3-2.9-8.2-5.8
		C1017.8,291.3,1017.5,285.9,1015.6,286z"/>
	<g>
		<g>
			<path class="st4" d="M1022.1,186.2c-13.9,17.6-20.9,40-19.4,62.4c1.4,20.9,10.1,45,29.7,55.2c1.7,0.9,3.2-1.7,1.5-2.6
				c-19.1-10-27.3-33.8-28.3-54.2c-1-21.1,5.5-42.2,18.7-58.8C1025.4,186.9,1023.3,184.7,1022.1,186.2L1022.1,186.2z"/>
		</g>
	</g>
	<g>
		<g>
			<path class="st4" d="M1033.9,304.5c19.4,1.1,38.3-6.6,51.6-20.8c1.3-1.4-0.8-3.5-2.1-2.1c-12.7,13.7-30.8,21-49.4,19.9
				C1031.9,301.4,1032,304.4,1033.9,304.5L1033.9,304.5z"/>
		</g>
	</g>
	<g>
		<g>
			<path class="st4" d="M1055,302.9c3.2,6.8,7.2,13.1,12,18.9c1.2,1.5,3.3-0.6,2.1-2.1c-4.7-5.6-8.5-11.7-11.5-18.3
				C1056.7,299.6,1054.2,301.1,1055,302.9L1055,302.9z"/>
		</g>
	</g>
	<g>
		<g>
			<path class="st4" d="M1101.6,230c2.9-2.1,6.8-3.8,10.4-2.5c4.8,1.7,5.7,7.5,5.6,11.8c-0.2,9-6.6,18.3-16.6,16.8
				c-1.9-0.3-2.7,2.6-0.8,2.9c12.6,1.9,20.8-9.6,20.3-21.3c-0.2-4.7-1.7-10.1-6.2-12.4c-4.7-2.5-10.3-0.7-14.3,2.2
				C1098.5,228.5,1100,231.1,1101.6,230L1101.6,230z"/>
		</g>
	</g>
	<g>
		<g>
			<path class="st4" d="M1025.8,209.5c-3.3,20.2-5.7,40.5-7.4,60.9c-0.1,1.5,2.1,2,2.8,0.8c3.4-6,6.8-12.1,10.2-18.1
				c0.9-1.7-1.6-3.2-2.6-1.5c-3.4,6-6.8,12.1-10.2,18.1c0.9,0.3,1.9,0.5,2.8,0.8c1.6-20.1,4-40.1,7.3-60.1
				C1029,208.4,1026.1,207.6,1025.8,209.5L1025.8,209.5z"/>
		</g>
	</g>
	<g>
		<g>
			<path class="st4" d="M1024.4,279c10.4,4.7,20.7-0.6,26.3-9.8c1-1.7-1.6-3.2-2.6-1.5c-4.6,7.7-13.3,12.8-22.2,8.7
				C1024.1,275.6,1022.6,278.2,1024.4,279L1024.4,279z"/>
		</g>
	</g>
	<g>
		<g>
			<path class="st4" d="M1046.6,267.1c1.7,0.3,3.2,1.1,4.2,2.6c1.1,1.6,3.7,0.1,2.6-1.5c-1.4-2.1-3.5-3.6-6-4
				C1045.5,263.9,1044.7,266.8,1046.6,267.1L1046.6,267.1z"/>
		</g>
	</g>
	<ellipse class="st4" cx="1015.5" cy="228.9" rx="1.5" ry="6.7"/>
	<ellipse class="st4" cx="1043.5" cy="225.9" rx="1.5" ry="6.7"/>
	<g>
		<g>
			<path class="st4" d="M1010.6,212.7c1.3-2.9,5-6.7,8.1-3.4c1.3,1.4,3.4-0.7,2.1-2.1c-4.4-4.8-10.6-0.7-12.8,4
				C1007.2,213,1009.8,214.5,1010.6,212.7L1010.6,212.7z"/>
		</g>
	</g>
	<g>
		<g>
			<path class="st4" d="M1039,207c1.7-5.1,7.6-3.6,10.5-0.7c1.3,1.4,3.5-0.7,2.1-2.1c-4.6-4.7-13.2-5.3-15.5,2
				C1035.5,208.1,1038.4,208.9,1039,207L1039,207z"/>
		</g>
	</g>
	<g>
		<g>
			<path class="st4" d="M1048.7,243c1.9,0,1.9-3,0-3C1046.8,240,1046.8,243,1048.7,243L1048.7,243z"/>
		</g>
	</g>
	<g>
		<g>
			<path class="st4" d="M1058.7,239.2c1.9,0,1.9-3,0-3C1056.7,236.2,1056.7,239.2,1058.7,239.2L1058.7,239.2z"/>
		</g>
	</g>
	<g>
		<g>
			<path class="st4" d="M1056.5,246.7c1.9,0,1.9-3,0-3C1054.5,243.7,1054.5,246.7,1056.5,246.7L1056.5,246.7z"/>
		</g>
	</g>
</g>
</svg>
